<svg xmlns="http://www.w3.org/2000/svg" viewBox="0 0 300 300" fill="none">
  <!-- Heart -->
  <path d="M150 60
           C140 45, 115 45, 115 70
           C115 90, 140 110, 150 120
           C160 110, 185 90, 185 70
           C185 45, 160 45, 150 60Z"
        stroke="#12412F" stroke-width="6" fill="none" />
  
  <!-- Honey Dipper Handle -->
  <rect x="140" y="120" width="20" height="80" rx="6" fill="#12412F"/>
  
  <!-- Honey Dipper Head -->
  <ellipse cx="150" cy="200" rx="25" ry="15" fill="#12412F"/>
  
  <!-- Bowl Outline -->
  <path d="M80 210
           Q150 260 220 210
           L220 235
           Q150 285 80 235Z"
        stroke="#12412F" stroke-width="8" fill="none"/>
  
  <!-- Floral Pattern on Bowl -->
  <!-- Left Flower -->
  <circle cx="115" cy="235" r="10" fill="#E8BABF"/>
  <path d="M115 225 A12 12 0 0 1 125 235" stroke="#12412F" stroke-width="3" fill="none"/>
  
  <!-- Right Flower -->
  <circle cx="185" cy="235" r="10" fill="#E8BABF"/>
  <path d="M185 225 A12 12 0 0 0 175 235" stroke="#12412F" stroke-width="3" fill="none"/>
  
  <!-- Center Leaf -->
  <path d="M145 245 Q150 255 155 245" stroke="#12412F" stroke-width="3" fill="none"/>
</svg>

